<svg width="50" height="50" viewBox="0 0 50 50" fill="none" xmlns="http://www.w3.org/2000/svg">
<circle cx="25" cy="25" r="25" fill="white"/>
<g clip-path="url(#clip0_787_1765)">
<path fill-rule="evenodd" clip-rule="evenodd" d="M22.109 28.6571L22.1081 20.7342L29.6734 24.7093L22.109 28.6571ZM38.72 19.3613C38.72 19.3613 38.4461 17.4182 37.607 16.5626C36.5421 15.439 35.3486 15.4337 34.8017 15.3685C30.8835 15.083 25.0061 15.083 25.0061 15.083H24.9939C24.9939 15.083 19.1165 15.083 15.1983 15.3685C14.6505 15.4337 13.4579 15.439 12.3921 16.5626C11.553 17.4182 11.28 19.3613 11.28 19.3613C11.28 19.3613 11 21.6436 11 23.925V26.0646C11 28.3469 11.28 30.6284 11.28 30.6284C11.28 30.6284 11.553 32.5715 12.3921 33.4271C13.4579 34.5506 14.857 34.5154 15.48 34.6326C17.72 34.8494 25 34.9163 25 34.9163C25 34.9163 30.8835 34.9075 34.8017 34.622C35.3486 34.5559 36.5421 34.5506 37.607 33.4271C38.4461 32.5715 38.72 30.6284 38.72 30.6284C38.72 30.6284 39 28.3469 39 26.0646V23.925C39 21.6436 38.72 19.3613 38.72 19.3613Z" fill="#CE1312"/>
</g>
<defs>
<clipPath id="clip0_787_1765">
<rect width="28" height="28" fill="white" transform="translate(11 11)"/>
</clipPath>
</defs>
</svg>
