<svg width="50" height="50" viewBox="0 0 50 50" fill="none" xmlns="http://www.w3.org/2000/svg">
<circle cx="25" cy="25" r="25" fill="white"/>
<path fill-rule="evenodd" clip-rule="evenodd" d="M39 37.727H32.8116V28.7787C32.8116 26.4365 31.8436 24.8376 29.715 24.8376C28.0868 24.8376 27.1813 25.9166 26.7599 26.9565C26.6018 27.3297 26.6265 27.8497 26.6265 28.3696V37.727H20.4958C20.4958 37.727 20.5748 21.876 20.4958 20.4351H26.6265V23.149C26.9887 21.9624 28.9478 20.2689 32.0741 20.2689C35.9527 20.2689 39 22.7562 39 28.1121V37.727ZM14.2959 18.2722H14.2564C12.2808 18.2722 11 16.9503 11 15.2748C11 13.5666 12.3187 12.2725 14.3337 12.2725C16.3471 12.2725 17.5851 13.5634 17.6246 15.2699C17.6246 16.9455 16.3471 18.2722 14.2959 18.2722ZM11.7062 20.4351H17.1637V37.727H11.7062V20.4351Z" fill="#007EBB"/>
</svg>
