<svg width="50" height="50" viewBox="0 0 50 50" fill="none" xmlns="http://www.w3.org/2000/svg">
<circle cx="25" cy="25" r="25" fill="#4460A0"/>
<g clip-path="url(#clip0_784_1742)">
<path fill-rule="evenodd" clip-rule="evenodd" d="M25.8874 38H13.435C12.6422 38 12 37.3574 12 36.5649V13.435C12 12.6423 12.6423 12 13.435 12H36.5651C37.3576 12 38 12.6423 38 13.435V36.5649C38 37.3575 37.3575 38 36.5651 38H29.9396V27.9314H33.3192L33.8252 24.0074H29.9396V21.5023C29.9396 20.3662 30.2551 19.592 31.8842 19.592L33.962 19.5911V16.0815C33.6027 16.0337 32.3693 15.9269 30.9343 15.9269C27.9385 15.9269 25.8874 17.7555 25.8874 21.1137V24.0074H22.4992V27.9314H25.8874V38Z" fill="white"/>
</g>
<defs>
<clipPath id="clip0_784_1742">
<rect width="26" height="26" fill="white" transform="translate(12 12)"/>
</clipPath>
</defs>
</svg>
