<svg width="50" height="50" viewBox="0 0 50 50" fill="none" xmlns="http://www.w3.org/2000/svg">
<circle cx="25" cy="25" r="25" fill="white"/>
<g clip-path="url(#clip0_787_1764)">
<path d="M11 25C11 27.5573 11.6347 29.9093 12.904 32.056C14.1733 34.2027 15.872 35.892 18 37.124V35.5C18 34.7533 18.1493 33.9693 18.448 33.148C17.216 32.1587 16.2547 30.9547 15.564 29.536C14.8733 28.1173 14.5187 26.6053 14.5 25C14.5 23.096 14.9667 21.3413 15.9 19.736C16.8333 18.1307 18.112 16.8613 19.736 15.928C21.36 14.9947 23.1147 14.5187 25 14.5C26.8853 14.4813 28.64 14.9573 30.264 15.928C31.888 16.8987 33.1667 18.168 34.1 19.736C35.0333 21.304 35.5 23.0587 35.5 25C35.5 26.624 35.1453 28.136 34.436 29.536C33.7267 30.936 32.7653 32.14 31.552 33.148C31.8507 33.932 32 34.716 32 35.5V37.124C34.128 35.892 35.8267 34.2027 37.096 32.056C38.3653 29.9093 39 27.5573 39 25C39 23.096 38.6267 21.2853 37.88 19.568C37.1333 17.8507 36.144 16.3573 34.912 15.088C33.68 13.8187 32.196 12.8293 30.46 12.12C28.724 11.4107 26.904 11.0373 25 11C23.096 11 21.2853 11.3733 19.568 12.12C17.8507 12.8667 16.3573 13.856 15.088 15.088C13.8187 16.32 12.8293 17.8133 12.12 19.568C11.4107 21.3227 11.0373 23.1333 11 25ZM16.264 25C16.264 26.288 16.5253 27.492 17.048 28.612C17.5707 29.732 18.2987 30.712 19.232 31.552C19.9227 30.5627 20.8187 29.7973 21.92 29.256C21.248 28.752 20.716 28.136 20.324 27.408C19.932 26.68 19.7453 25.8773 19.764 25C19.764 23.5627 20.268 22.3307 21.276 21.304C22.284 20.2773 23.5253 19.764 25 19.764C26.4747 19.764 27.716 20.2773 28.724 21.304C29.732 22.3307 30.2453 23.5627 30.264 25C30.264 25.8587 30.068 26.6613 29.676 27.408C29.284 28.1547 28.752 28.7707 28.08 29.256C29.1813 29.7973 30.0773 30.5627 30.768 31.552C31.7013 30.7307 32.4293 29.7507 32.952 28.612C33.4747 27.4733 33.7453 26.2693 33.764 25C33.764 23.824 33.5307 22.6947 33.064 21.612C32.5973 20.5293 31.972 19.596 31.188 18.812C30.404 18.028 29.4707 17.412 28.388 16.964C27.3053 16.516 26.176 16.2827 25 16.264C23.4133 16.264 21.948 16.656 20.604 17.44C19.26 18.224 18.2053 19.2787 17.44 20.604C16.6747 21.9293 16.2827 23.3947 16.264 25ZM19.764 35.5V39H30.264V35.5C30.264 34.0627 29.7507 32.8307 28.724 31.804C27.6973 30.7773 26.456 30.264 25 30.264C23.544 30.264 22.3027 30.7773 21.276 31.804C20.2493 32.8307 19.7453 34.0627 19.764 35.5ZM21.5 25C21.5 25.9707 21.8453 26.8013 22.536 27.492C23.2267 28.1827 24.048 28.5187 25 28.5C25.952 28.4813 26.7733 28.1453 27.464 27.492C28.1547 26.8387 28.5 26.008 28.5 25C28.5 23.992 28.1547 23.1707 27.464 22.536C26.7733 21.9013 25.952 21.556 25 21.5C24.048 21.444 23.2267 21.7893 22.536 22.536C21.8453 23.2827 21.5 24.104 21.5 25Z" fill="black"/>
</g>
<defs>
<clipPath id="clip0_787_1764">
<rect width="28" height="28" fill="white" transform="translate(11 11)"/>
</clipPath>
</defs>
</svg>
