<svg width="57" height="57" viewBox="0 0 57 57" fill="none" xmlns="http://www.w3.org/2000/svg">
<g clip-path="url(#clip0_687_1582)">
<g filter="url(#filter0_d_687_1582)">
<path fill-rule="evenodd" clip-rule="evenodd" d="M42.7615 38.5967C42.171 40.2681 39.8239 41.6508 37.9521 42.0552C36.6708 42.3272 34.9998 42.5424 29.3697 40.2093C23.0463 37.5894 14.2655 28.2574 14.2655 22.0472C14.2655 18.8858 16.0883 15.2044 19.2758 15.2044C20.8095 15.2044 21.1476 15.2344 21.6523 16.445C22.2427 17.8713 23.6833 21.3855 23.8548 21.7458C24.5629 23.2235 23.1345 24.0887 22.0981 25.3753C21.7674 25.7625 21.3926 26.1813 21.8115 26.9018C22.228 27.6076 23.6686 29.9554 25.7854 31.84C28.5196 34.2761 30.7368 35.0538 31.5306 35.3846C32.1211 35.6297 32.8267 35.5726 33.2579 35.1119C33.8043 34.5213 34.4829 33.5414 35.1738 32.5758C35.6613 31.8846 36.2812 31.7983 36.9305 32.0434C37.369 32.1954 42.9427 34.7839 43.1779 35.198C43.3519 35.4995 43.3519 36.9253 42.7615 38.5967ZM28.5049 4H28.4926C14.9858 4 4 14.9891 4 28.5C4 33.8573 5.72727 38.8276 8.66482 42.8591L5.61211 51.9628L15.0275 48.9542C18.9009 51.5176 23.524 53 28.5049 53C42.0117 53 53 42.0109 53 28.5C53 14.9891 42.0117 4 28.5049 4Z" fill="url(#paint0_linear_687_1582)"/>
</g>
</g>
<defs>
<filter id="filter0_d_687_1582" x="0.5" y="1.5" width="56" height="56" filterUnits="userSpaceOnUse" color-interpolation-filters="sRGB">
<feFlood flood-opacity="0" result="BackgroundImageFix"/>
<feColorMatrix in="SourceAlpha" type="matrix" values="0 0 0 0 0 0 0 0 0 0 0 0 0 0 0 0 0 0 127 0" result="hardAlpha"/>
<feOffset dy="1"/>
<feGaussianBlur stdDeviation="1.75"/>
<feComposite in2="hardAlpha" operator="out"/>
<feColorMatrix type="matrix" values="0 0 0 0 0 0 0 0 0 0 0 0 0 0 0 0 0 0 0.4 0"/>
<feBlend mode="normal" in2="BackgroundImageFix" result="effect1_dropShadow_687_1582"/>
<feBlend mode="normal" in="SourceGraphic" in2="effect1_dropShadow_687_1582" result="shape"/>
</filter>
<linearGradient id="paint0_linear_687_1582" x1="28.5" y1="4" x2="28.5" y2="53" gradientUnits="userSpaceOnUse">
<stop stop-color="#59FF4A"/>
<stop offset="1" stop-color="#5DDF21"/>
</linearGradient>
<clipPath id="clip0_687_1582">
<rect width="57" height="57" fill="white"/>
</clipPath>
</defs>
</svg>
