<svg width="253" height="47" viewBox="0 0 253 47" fill="none" xmlns="http://www.w3.org/2000/svg">
<path d="M36.8946 15.915C39.4846 17.469 40.7796 19.319 40.7796 21.465C40.7796 23.8083 39.4476 26.053 36.7836 28.199C34.5142 30.049 32.0846 31.2823 29.4946 31.899C26.9292 32.5157 24.5612 32.824 22.3906 32.824C21.9712 32.824 21.5766 32.8117 21.2066 32.787C19.4059 35.4757 17.5559 37.7203 15.6566 39.521C12.8939 42.1357 9.7859 43.443 6.33256 43.443C4.11256 43.443 2.4599 42.9497 1.37456 41.963C0.659229 41.297 0.301562 40.52 0.301562 39.632C0.301562 38.4727 0.807229 37.56 1.81856 36.894C2.6819 36.3267 3.73023 36.043 4.96356 36.043C5.9749 36.043 7.02323 36.228 8.10856 36.598C8.42923 36.6967 8.58956 36.8323 8.58956 37.005C8.58956 37.1037 8.50323 37.153 8.33056 37.153C8.2319 37.153 8.1209 37.1283 7.99756 37.079C7.2329 36.783 6.51756 36.635 5.85156 36.635C4.9389 36.635 4.1619 36.9063 3.52056 37.449C2.9039 37.967 2.59556 38.67 2.59556 39.558C2.59556 40.3967 2.91623 41.0627 3.55756 41.556C4.1249 42 4.84023 42.2467 5.70356 42.296C8.61423 42.444 11.4509 41.1613 14.2136 38.448C15.7922 36.894 17.9382 33.564 20.6516 28.458C23.5129 23.0807 26.0166 19.1833 28.1626 16.766C28.5572 16.322 29.2109 15.6313 30.1236 14.694C28.5449 14.4473 26.8306 14.324 24.9806 14.324C18.8632 14.324 13.7202 15.5697 9.55156 18.061C6.2709 20.0097 4.63056 22.2913 4.63056 24.906C4.63056 25.9913 4.9759 26.9163 5.66656 27.681C6.35723 28.4457 7.24523 28.8403 8.33056 28.865C9.53923 28.9143 10.6862 28.458 11.7716 27.496C12.7582 26.6573 13.4612 25.6213 13.8806 24.388C13.9299 24.1413 14.0286 24.018 14.1766 24.018C14.3246 24.018 14.3986 24.1537 14.3986 24.425C14.3739 26.0037 13.7449 27.274 12.5116 28.236C11.2782 29.198 9.8599 29.6543 8.25656 29.605C6.6039 29.5557 5.24723 29.0007 4.18656 27.94C3.15056 26.8793 2.6819 25.5227 2.78056 23.87C2.92856 20.9347 4.81556 18.5173 8.44156 16.618C11.1302 15.212 14.2506 14.25 17.8026 13.732C20.1706 13.3867 22.5386 13.214 24.9066 13.214C27.1759 13.214 29.2479 13.399 31.1226 13.769C31.9612 13.1277 32.8862 12.6097 33.8976 12.215C34.2182 12.0917 34.4649 12.03 34.6376 12.03C34.7856 12.03 34.8596 12.067 34.8596 12.141C34.8596 12.289 34.6622 12.4987 34.2676 12.77C33.7002 13.14 33.1452 13.5963 32.6026 14.139C34.2306 14.583 35.6612 15.175 36.8946 15.915ZM31.8996 15.027C30.5676 16.877 28.8532 19.6767 26.7566 23.426C24.4872 27.496 22.8099 30.3573 21.7246 32.01C24.1666 32.1087 26.6456 31.6893 29.1616 30.752C31.7022 29.79 33.8236 28.458 35.5256 26.756C37.4742 24.7827 38.4486 22.8093 38.4486 20.836C38.4486 17.95 36.2656 16.0137 31.8996 15.027ZM48.4131 35.229C46.1685 39.743 44.2445 42 42.6411 42C41.9751 42 41.4571 41.7657 41.0871 41.297C40.7171 40.8037 40.5321 40.2117 40.5321 39.521C40.5321 38.8797 40.6925 38.1397 41.0131 37.301C41.2351 36.7583 41.6051 36.0307 42.1231 35.118C42.7151 34.1067 43.1098 33.379 43.3071 32.935C43.3811 32.7377 43.4181 32.565 43.4181 32.417C43.4181 31.6523 42.4315 31.2453 40.4581 31.196L40.0141 32.38C38.5095 36.4007 37.0171 39.1263 35.5371 40.557C35.4631 40.6063 35.4015 40.631 35.3521 40.631C35.2535 40.631 35.1918 40.5693 35.1671 40.446C35.1425 40.3227 35.1671 40.1993 35.2411 40.076C36.5485 38.374 37.7941 35.9937 38.9781 32.935C39.9895 30.2957 40.6431 28.1497 40.9391 26.497C41.0625 25.7323 41.3955 25.35 41.9381 25.35C42.3575 25.35 42.6781 25.5473 42.9001 25.942C43.1468 26.312 43.2701 26.719 43.2701 27.163C43.2701 28.2977 42.5671 29.346 41.1611 30.308C42.7398 30.382 44.4418 30.3327 46.2671 30.16C46.3165 30.234 46.3411 30.345 46.3411 30.493C46.3411 31.0357 46.0575 31.8743 45.4901 33.009C43.6155 36.7337 42.6781 39.1017 42.6781 40.113C42.6781 40.705 42.9125 41.0133 43.3811 41.038C44.4171 41.0627 45.9465 39.003 47.9691 34.859C48.0925 34.6123 48.2281 34.489 48.3761 34.489C48.4995 34.489 48.5611 34.5877 48.5611 34.785C48.5611 34.8837 48.5118 35.0317 48.4131 35.229ZM61.3915 35.192C59.1961 39.6567 57.3338 41.9507 55.8045 42.074C55.0891 42.1233 54.5341 41.889 54.1395 41.371C53.7695 40.853 53.5845 40.224 53.5845 39.484C53.5845 38.8427 53.7078 38.115 53.9545 37.301C52.0305 40.4583 50.3038 42.037 48.7745 42.037C48.0591 42.037 47.5165 41.6793 47.1465 40.964C46.8505 40.3967 46.7025 39.7183 46.7025 38.929C46.7025 36.5857 47.7385 34.1683 49.8105 31.677C50.4765 30.863 51.3398 30.1847 52.4005 29.642C53.4611 29.0747 54.4971 28.791 55.5085 28.791C56.7171 28.791 57.6791 29.1857 58.3945 29.975C58.5671 30.1723 58.6535 30.3697 58.6535 30.567C58.6535 30.9863 58.4315 31.1467 57.9875 31.048C57.7408 30.16 57.1735 29.716 56.2855 29.716C55.2495 29.716 54.0285 30.4437 52.6225 31.899C51.5865 32.9597 50.6861 34.1313 49.9215 35.414C48.8855 37.1407 48.3675 38.5837 48.3675 39.743C48.3675 40.5817 48.6758 41.001 49.2925 41.001C50.7971 41.001 52.7335 38.7317 55.1015 34.193C55.5948 33.2557 55.9648 32.6513 56.2115 32.38C56.6061 31.9607 57.0748 31.7757 57.6175 31.825C57.7408 31.825 57.9875 31.862 58.3575 31.936C58.7275 32.01 58.9988 32.0223 59.1715 31.973C58.6041 32.5403 57.9258 33.638 57.1365 35.266C56.3965 36.7953 55.9278 38.004 55.7305 38.892C55.6318 39.3607 55.5825 39.78 55.5825 40.15C55.5825 40.7913 55.7551 41.112 56.1005 41.112C57.2351 41.1613 58.8261 39.0893 60.8735 34.896C60.9968 34.6493 61.1448 34.526 61.3175 34.526C61.4408 34.526 61.5025 34.6 61.5025 34.748C61.5025 34.896 61.4655 35.044 61.3915 35.192ZM70.664 35.488C70.1953 36.4993 69.6527 37.5353 69.036 38.596C67.7533 40.8407 66.2117 41.963 64.411 41.963C64.0163 41.963 63.597 41.9013 63.153 41.778C62.635 42.0247 62.1293 42.148 61.636 42.148C60.674 42.148 59.8847 41.9013 59.268 41.408C58.6513 40.9147 58.343 40.1993 58.343 39.262C58.343 38.744 58.454 38.263 58.676 37.819C58.9473 37.2517 59.3173 36.9557 59.786 36.931C60.674 35.1057 61.5497 33.2803 62.413 31.455C63.819 28.865 65.0277 27.496 66.039 27.348C66.3843 27.2987 66.742 27.3233 67.112 27.422C67.6053 27.5453 67.852 27.755 67.852 28.051C67.852 28.199 67.7657 28.273 67.593 28.273C67.519 28.273 67.297 28.199 66.927 28.051C66.631 27.977 66.3473 28.0017 66.076 28.125C65.2373 28.5197 64.818 29.3337 64.818 30.567C64.818 31.233 64.9783 31.9853 65.299 32.824C65.595 33.5147 65.891 34.2177 66.187 34.933C66.5077 35.747 66.6557 36.4993 66.631 37.19C66.557 38.7933 65.6813 40.1623 64.004 41.297L64.263 41.334C65.299 41.482 66.409 40.9147 67.593 39.632C67.9877 39.2127 68.9127 37.597 70.368 34.785C70.442 34.6617 70.5283 34.6 70.627 34.6C70.7997 34.6 70.886 34.6863 70.886 34.859C70.886 34.933 70.812 35.1427 70.664 35.488ZM64.374 37.19C64.3987 36.4253 64.3247 35.377 64.152 34.045C63.93 32.5897 63.819 31.5413 63.819 30.9C63.819 30.6287 63.8437 30.382 63.893 30.16C62.4623 33.046 61.303 35.3277 60.415 37.005C60.9823 37.0297 61.2413 37.4243 61.192 38.189C61.118 39.5457 61.636 40.4953 62.746 41.038C63.7327 40.2733 64.2753 38.9907 64.374 37.19ZM62.117 41.371C61.2043 40.8037 60.711 39.8787 60.637 38.596C60.193 39.04 59.971 39.5333 59.971 40.076C59.971 41.038 60.4397 41.519 61.377 41.519C61.6237 41.519 61.8703 41.4697 62.117 41.371ZM83.0538 35.229C80.9078 39.8417 78.9221 42.148 77.0968 42.148C75.5428 42.148 74.7658 41.3463 74.7658 39.743C74.7658 38.4357 75.5675 36.4993 77.1708 33.934C77.4175 33.5393 77.5408 33.2063 77.5408 32.935C77.5408 32.5157 77.2941 32.3923 76.8008 32.565C76.2335 32.7623 75.4811 33.2927 74.5438 34.156C72.7185 35.858 70.9918 38.3 69.3638 41.482C69.1665 41.852 68.7718 42.0493 68.1798 42.074C67.3905 42.0987 66.9095 42.1603 66.7368 42.259L71.5838 32.232C73.2611 28.8033 75.0371 25.35 76.9118 21.872C77.7998 20.244 78.6755 19.467 79.5388 19.541C79.6621 19.541 79.9211 19.578 80.3158 19.652C80.6365 19.726 80.8955 19.7383 81.0928 19.689C80.3035 20.5277 78.8975 22.7847 76.8748 26.46C75.2468 29.3953 73.4955 32.7747 71.6208 36.598C73.4708 34.2053 75.5551 32.3553 77.8738 31.048C79.3291 30.234 80.4021 29.827 81.0928 29.827C81.2408 29.827 81.3641 29.8393 81.4628 29.864C80.1555 32.2567 79.3045 33.8477 78.9098 34.637C77.8491 36.783 77.2201 38.374 77.0228 39.41C76.9488 39.8047 76.9118 40.1253 76.9118 40.372C76.9118 41.0133 77.1338 41.3463 77.5778 41.371C78.7371 41.4697 80.4021 39.299 82.5728 34.859C82.6961 34.6123 82.8318 34.489 82.9798 34.489C83.1031 34.489 83.1648 34.5753 83.1648 34.748C83.1648 34.9207 83.1278 35.081 83.0538 35.229ZM96.079 35.192C93.8836 39.6567 92.0213 41.9507 90.492 42.074C89.7766 42.1233 89.2216 41.889 88.827 41.371C88.457 40.853 88.272 40.224 88.272 39.484C88.272 38.8427 88.3953 38.115 88.642 37.301C86.718 40.4583 84.9913 42.037 83.462 42.037C82.7466 42.037 82.204 41.6793 81.834 40.964C81.538 40.3967 81.39 39.7183 81.39 38.929C81.39 36.5857 82.426 34.1683 84.498 31.677C85.164 30.863 86.0273 30.1847 87.088 29.642C88.1486 29.0747 89.1846 28.791 90.196 28.791C91.4046 28.791 92.3666 29.1857 93.082 29.975C93.2546 30.1723 93.341 30.3697 93.341 30.567C93.341 30.9863 93.119 31.1467 92.675 31.048C92.4283 30.16 91.861 29.716 90.973 29.716C89.937 29.716 88.716 30.4437 87.31 31.899C86.274 32.9597 85.3736 34.1313 84.609 35.414C83.573 37.1407 83.055 38.5837 83.055 39.743C83.055 40.5817 83.3633 41.001 83.98 41.001C85.4846 41.001 87.421 38.7317 89.789 34.193C90.2823 33.2557 90.6523 32.6513 90.899 32.38C91.2936 31.9607 91.7623 31.7757 92.305 31.825C92.4283 31.825 92.675 31.862 93.045 31.936C93.415 32.01 93.6863 32.0223 93.859 31.973C93.2916 32.5403 92.6133 33.638 91.824 35.266C91.084 36.7953 90.6153 38.004 90.418 38.892C90.3193 39.3607 90.27 39.78 90.27 40.15C90.27 40.7913 90.4426 41.112 90.788 41.112C91.9226 41.1613 93.5136 39.0893 95.561 34.896C95.6843 34.6493 95.8323 34.526 96.005 34.526C96.1283 34.526 96.19 34.6 96.19 34.748C96.19 34.896 96.153 35.044 96.079 35.192ZM108.349 35.229C107.288 37.3503 106.511 38.781 106.018 39.521C104.809 41.2723 103.588 42.148 102.355 42.148C100.825 42.148 100.061 41.3463 100.061 39.743C100.061 38.411 100.85 36.4747 102.429 33.934C102.675 33.5393 102.799 33.2063 102.799 32.935C102.799 32.5403 102.564 32.417 102.096 32.565C101.479 32.7623 100.714 33.2927 99.8015 34.156C98.0008 35.8333 96.2865 38.2753 94.6585 41.482C94.4612 41.852 94.0542 42.0493 93.4375 42.074C92.6482 42.0987 92.1672 42.1603 91.9945 42.259C93.3758 39.2497 95.0778 35.7963 97.1005 31.899C97.5198 31.1097 97.8528 30.567 98.0995 30.271C98.5682 29.753 99.1108 29.5187 99.7275 29.568C99.8508 29.568 100.098 29.605 100.468 29.679C100.838 29.753 101.109 29.7653 101.282 29.716C100.32 30.234 98.8272 32.5527 96.8045 36.672C98.7778 34.1807 100.887 32.306 103.132 31.048C104.587 30.234 105.66 29.827 106.351 29.827C106.499 29.827 106.622 29.8393 106.721 29.864C105.438 32.232 104.587 33.8353 104.168 34.674C103.082 36.8447 102.453 38.4233 102.281 39.41C102.231 39.706 102.207 40.002 102.207 40.298C102.207 40.9393 102.429 41.26 102.873 41.26C104.18 41.26 105.87 39.1263 107.942 34.859C108.065 34.6123 108.188 34.489 108.312 34.489C108.41 34.489 108.46 34.5753 108.46 34.748C108.46 34.9207 108.423 35.081 108.349 35.229ZM117.042 27.94C117.215 27.94 117.301 28.051 117.301 28.273C117.301 28.5937 117.19 28.754 116.968 28.754H114.822C113.49 31.048 111.85 33.083 109.901 34.859C109.704 35.377 109.42 36.635 109.05 38.633C108.976 39.0277 108.939 39.3237 108.939 39.521C108.939 40.5077 109.346 41.001 110.16 41.001C111.591 41.001 113.305 38.966 115.303 34.896C115.426 34.6247 115.574 34.489 115.747 34.489C115.846 34.489 115.895 34.563 115.895 34.711C115.895 34.8343 115.858 34.97 115.784 35.118C114.427 38.0287 113.231 39.9773 112.195 40.964C111.48 41.6547 110.641 42 109.679 42C108.914 42 108.285 41.7533 107.792 41.26C107.299 40.742 107.052 39.9897 107.052 39.003C107.052 36.857 108.026 33.4407 109.975 28.754H108.051C107.878 28.754 107.792 28.6307 107.792 28.384C107.792 28.088 107.903 27.94 108.125 27.94H110.345C111.184 26.1147 112.084 24.3633 113.046 22.686C114.156 20.7373 115.315 19.763 116.524 19.763C117.363 19.763 117.782 20.318 117.782 21.428C117.782 22.7107 116.943 24.8813 115.266 27.94H117.042ZM116.302 24.166C116.697 23.2533 116.894 22.4517 116.894 21.761C116.894 21.3663 116.808 21.169 116.635 21.169C116.339 21.169 115.87 21.6253 115.229 22.538C114.81 23.13 113.934 24.9307 112.602 27.94H114.452C115.069 26.83 115.685 25.572 116.302 24.166ZM113.971 28.754H112.232C111.862 29.642 111.196 31.2823 110.234 33.675C111.541 32.3677 112.787 30.7273 113.971 28.754ZM122.456 25.831C122.382 26.2503 122.172 26.608 121.827 26.904C121.481 27.2 121.099 27.348 120.68 27.348C120.26 27.348 119.927 27.2 119.681 26.904C119.434 26.608 119.335 26.2503 119.385 25.831C119.434 25.4117 119.631 25.054 119.977 24.758C120.347 24.462 120.741 24.314 121.161 24.314C121.58 24.314 121.913 24.462 122.16 24.758C122.431 25.054 122.53 25.4117 122.456 25.831ZM115.685 38.855C115.537 39.299 115.463 39.6813 115.463 40.002C115.463 40.742 115.783 41.1367 116.425 41.186C117.757 41.2847 119.471 39.188 121.568 34.896C121.691 34.6493 121.827 34.526 121.975 34.526C122.098 34.526 122.16 34.6123 122.16 34.785C122.16 34.933 122.123 35.081 122.049 35.229C119.952 39.743 118.016 42 116.24 42C114.612 42 113.798 41.112 113.798 39.336C113.798 38.67 113.946 37.9547 114.242 37.19L116.61 31.122C116.659 30.9987 116.684 30.863 116.684 30.715C116.684 30.3943 116.536 30.0243 116.24 29.605L118.275 29.568C118.965 29.5433 119.311 29.716 119.311 30.086C119.311 30.2093 119.224 30.4683 119.052 30.863L116.092 37.782C115.944 38.1273 115.808 38.485 115.685 38.855ZM165.546 23.907C166.015 24.129 166.249 24.499 166.249 25.017C166.249 25.2143 165.608 26.8177 164.325 29.827C162.919 33.1323 162.142 35.0687 161.994 35.636C161.402 37.9053 161.106 39.8047 161.106 41.334C161.106 43.184 161.575 44.0843 162.512 44.035C163.178 43.9857 163.511 44.0843 163.511 44.331C163.511 44.553 163.351 44.7133 163.03 44.812C162.734 44.9107 162.475 44.9353 162.253 44.886C160.453 44.5653 159.552 42.8387 159.552 39.706C159.552 38.3493 159.725 36.82 160.07 35.118C159.404 36.2773 158.652 37.3873 157.813 38.448C155.223 41.778 152.732 43.443 150.339 43.443C149.18 43.443 148.28 42.9867 147.638 42.074C147.096 41.2847 146.824 40.2857 146.824 39.077C146.824 37.079 147.762 33.9217 149.636 29.605C151.881 24.425 153.139 21.3047 153.41 20.244C153.83 18.5913 154.039 17.136 154.039 15.878C154.039 14.176 153.583 12.9673 152.67 12.252C151.856 11.6107 150.574 11.29 148.822 11.29C146.109 11.29 143.272 12.1533 140.312 13.88C137.5 15.508 135.219 17.5183 133.467 19.911C131.445 22.649 130.433 25.4857 130.433 28.421C130.433 30.419 130.939 32.0963 131.95 33.453C133.06 34.9577 134.577 35.71 136.501 35.71C139.338 35.71 141.644 34.341 143.42 31.603C144.58 29.827 145.159 28.1867 145.159 26.682C145.159 24.906 144.345 24.018 142.717 24.018C142.471 24.018 142.101 24.0673 141.607 24.166C141.139 24.2647 140.781 24.314 140.534 24.314C140.263 24.314 140.251 24.203 140.497 23.981C140.695 23.7837 140.904 23.648 141.126 23.574C141.99 23.2287 142.742 23.056 143.383 23.056C145.283 23.056 146.232 24.1907 146.232 26.46C146.232 28.4087 145.542 30.308 144.16 32.158C142.853 33.9093 141.262 35.1797 139.387 35.969C138.179 36.487 137.019 36.746 135.909 36.746C133.739 36.746 132 35.8827 130.692 34.156C129.508 32.5773 128.916 30.6657 128.916 28.421C128.916 25.1403 130.1 22.02 132.468 19.06C134.466 16.5933 137.106 14.4597 140.386 12.659C143.248 11.0803 146.01 10.291 148.674 10.291C150.08 10.291 151.338 10.5377 152.448 11.031C154.816 12.067 156 14.0773 156 17.062C156 18.098 155.865 19.208 155.593 20.392C155.273 21.798 154.015 24.9677 151.819 29.901C149.92 34.1683 148.97 37.3133 148.97 39.336C148.97 41.4573 149.661 42.518 151.042 42.518C152.843 42.518 154.915 40.816 157.258 37.412C158.27 35.932 159.429 33.897 160.736 31.307L163.474 25.868C164.19 24.5607 164.88 23.907 165.546 23.907ZM178.844 35.229C177.783 37.3503 177.006 38.781 176.513 39.521C175.304 41.2723 174.083 42.148 172.85 42.148C171.32 42.148 170.556 41.3463 170.556 39.743C170.556 38.411 171.345 36.4747 172.924 33.934C173.17 33.5393 173.294 33.2063 173.294 32.935C173.294 32.5403 173.059 32.417 172.591 32.565C171.974 32.7623 171.209 33.2927 170.297 34.156C168.496 35.8333 166.782 38.2753 165.154 41.482C164.956 41.852 164.549 42.0493 163.933 42.074C163.143 42.0987 162.662 42.1603 162.49 42.259C163.871 39.2497 165.573 35.7963 167.596 31.899C168.015 31.1097 168.348 30.567 168.595 30.271C169.063 29.753 169.606 29.5187 170.223 29.568C170.346 29.568 170.593 29.605 170.963 29.679C171.333 29.753 171.604 29.7653 171.777 29.716C170.815 30.234 169.322 32.5527 167.3 36.672C169.273 34.1807 171.382 32.306 173.627 31.048C175.082 30.234 176.155 29.827 176.846 29.827C176.994 29.827 177.117 29.8393 177.216 29.864C175.933 32.232 175.082 33.8353 174.663 34.674C173.577 36.8447 172.948 38.4233 172.776 39.41C172.726 39.706 172.702 40.002 172.702 40.298C172.702 40.9393 172.924 41.26 173.368 41.26C174.675 41.26 176.365 39.1263 178.437 34.859C178.56 34.6123 178.683 34.489 178.807 34.489C178.905 34.489 178.955 34.5753 178.955 34.748C178.955 34.9207 178.918 35.081 178.844 35.229ZM188.055 23.759C185.909 28.495 183.381 32.195 180.47 34.859C180.224 35.451 179.965 36.265 179.693 37.301C179.521 37.9423 179.434 38.559 179.434 39.151C179.434 40.5323 179.903 41.223 180.84 41.223C181.704 41.223 182.592 40.668 183.504 39.558C183.652 39.3853 184.207 38.4603 185.169 36.783C186.033 35.2783 186.551 34.526 186.723 34.526C186.822 34.526 186.871 34.6 186.871 34.748C186.871 34.822 186.834 34.9453 186.76 35.118C185.774 37.264 184.997 38.7193 184.429 39.484C183.147 41.2107 181.704 42.074 180.1 42.074C178.374 42.074 177.51 41.1737 177.51 39.373C177.51 38.5837 177.831 37.0543 178.472 34.785C179.755 30.2463 181.63 25.8927 184.096 21.724C185.256 19.7753 186.44 18.801 187.648 18.801C188.512 18.801 188.943 19.3683 188.943 20.503C188.943 21.3663 188.647 22.4517 188.055 23.759ZM187.5 23.204C187.895 22.2667 188.092 21.4773 188.092 20.836C188.092 20.4907 188.006 20.318 187.833 20.318C187.587 20.318 187.18 20.725 186.612 21.539C184.96 23.907 183.011 27.9523 180.766 33.675C183.43 30.9863 185.675 27.496 187.5 23.204ZM193.565 25.831C193.491 26.2503 193.281 26.608 192.936 26.904C192.591 27.2 192.208 27.348 191.789 27.348C191.37 27.348 191.037 27.2 190.79 26.904C190.543 26.608 190.445 26.2503 190.494 25.831C190.543 25.4117 190.741 25.054 191.086 24.758C191.456 24.462 191.851 24.314 192.27 24.314C192.689 24.314 193.022 24.462 193.269 24.758C193.54 25.054 193.639 25.4117 193.565 25.831ZM186.794 38.855C186.646 39.299 186.572 39.6813 186.572 40.002C186.572 40.742 186.893 41.1367 187.534 41.186C188.866 41.2847 190.58 39.188 192.677 34.896C192.8 34.6493 192.936 34.526 193.084 34.526C193.207 34.526 193.269 34.6123 193.269 34.785C193.269 34.933 193.232 35.081 193.158 35.229C191.061 39.743 189.125 42 187.349 42C185.721 42 184.907 41.112 184.907 39.336C184.907 38.67 185.055 37.9547 185.351 37.19L187.719 31.122C187.768 30.9987 187.793 30.863 187.793 30.715C187.793 30.3943 187.645 30.0243 187.349 29.605L189.384 29.568C190.075 29.5433 190.42 29.716 190.42 30.086C190.42 30.2093 190.334 30.4683 190.161 30.863L187.201 37.782C187.053 38.1273 186.917 38.485 186.794 38.855ZM211.837 35.229C210.702 37.4737 209.925 38.9043 209.506 39.521C208.297 41.2723 207.088 42.148 205.88 42.148C204.326 42.148 203.549 41.3463 203.549 39.743C203.549 38.4357 204.338 36.4993 205.917 33.934C206.163 33.5393 206.287 33.2063 206.287 32.935C206.287 32.5403 206.052 32.417 205.584 32.565C204.153 33.0337 202.377 34.785 200.256 37.819C199.022 39.5703 198.295 40.964 198.073 42C197.604 42 197.271 41.778 197.074 41.334C196.876 40.89 196.815 40.4337 196.889 39.965C197.037 39.003 197.555 37.597 198.443 35.747C199.232 34.119 199.627 33.0953 199.627 32.676C199.627 32.4787 199.553 32.38 199.405 32.38C199.035 32.38 198.221 32.972 196.963 34.156C195.137 35.8827 193.435 38.2877 191.857 41.371C191.684 41.741 191.289 41.9383 190.673 41.963C189.908 42.0123 189.427 42.0863 189.23 42.185C190.586 39.2003 192.264 35.7717 194.262 31.899C195.1 30.271 195.976 29.494 196.889 29.568C197.012 29.568 197.259 29.605 197.629 29.679C197.999 29.753 198.27 29.7653 198.443 29.716C197.481 30.234 195.988 32.5527 193.966 36.672C195.051 35.3153 196.075 34.2053 197.037 33.342C198.541 31.9853 199.417 31.2207 199.664 31.048C200.749 30.234 201.551 29.827 202.069 29.827C202.784 29.827 203.142 30.1723 203.142 30.863C203.142 31.085 203.092 31.2947 202.994 31.492C202.5 32.454 201.6 34.1807 200.293 36.672C202.266 34.2053 204.387 32.3307 206.657 31.048C208.112 30.234 209.173 29.827 209.839 29.827C209.987 29.827 210.11 29.8393 210.209 29.864C208.926 32.2073 208.075 33.7983 207.656 34.637C206.595 36.783 205.966 38.374 205.769 39.41C205.719 39.6813 205.695 39.9773 205.695 40.298C205.695 40.9393 205.929 41.26 206.398 41.26C207.656 41.26 209.333 39.1263 211.43 34.859C211.553 34.6123 211.676 34.489 211.8 34.489C211.923 34.489 211.985 34.5753 211.985 34.748C211.985 34.8713 211.935 35.0317 211.837 35.229ZM218.75 25.831C218.676 26.2503 218.466 26.608 218.121 26.904C217.775 27.2 217.393 27.348 216.974 27.348C216.554 27.348 216.221 27.2 215.975 26.904C215.728 26.608 215.629 26.2503 215.679 25.831C215.728 25.4117 215.925 25.054 216.271 24.758C216.641 24.462 217.035 24.314 217.455 24.314C217.874 24.314 218.207 24.462 218.454 24.758C218.725 25.054 218.824 25.4117 218.75 25.831ZM211.979 38.855C211.831 39.299 211.757 39.6813 211.757 40.002C211.757 40.742 212.077 41.1367 212.719 41.186C214.051 41.2847 215.765 39.188 217.862 34.896C217.985 34.6493 218.121 34.526 218.269 34.526C218.392 34.526 218.454 34.6123 218.454 34.785C218.454 34.933 218.417 35.081 218.343 35.229C216.246 39.743 214.31 42 212.534 42C210.906 42 210.092 41.112 210.092 39.336C210.092 38.67 210.24 37.9547 210.536 37.19L212.904 31.122C212.953 30.9987 212.978 30.863 212.978 30.715C212.978 30.3943 212.83 30.0243 212.534 29.605L214.569 29.568C215.259 29.5433 215.605 29.716 215.605 30.086C215.605 30.2093 215.518 30.4683 215.346 30.863L212.386 37.782C212.238 38.1273 212.102 38.485 211.979 38.855ZM226.994 27.94C227.167 27.94 227.253 28.051 227.253 28.273C227.253 28.5937 227.142 28.754 226.92 28.754H224.774C223.442 31.048 221.802 33.083 219.853 34.859C219.656 35.377 219.372 36.635 219.002 38.633C218.928 39.0277 218.891 39.3237 218.891 39.521C218.891 40.5077 219.298 41.001 220.112 41.001C221.543 41.001 223.257 38.966 225.255 34.896C225.379 34.6247 225.527 34.489 225.699 34.489C225.798 34.489 225.847 34.563 225.847 34.711C225.847 34.8343 225.81 34.97 225.736 35.118C224.38 38.0287 223.183 39.9773 222.147 40.964C221.432 41.6547 220.593 42 219.631 42C218.867 42 218.238 41.7533 217.744 41.26C217.251 40.742 217.004 39.9897 217.004 39.003C217.004 36.857 217.979 33.4407 219.927 28.754H218.003C217.831 28.754 217.744 28.6307 217.744 28.384C217.744 28.088 217.855 27.94 218.077 27.94H220.297C221.136 26.1147 222.036 24.3633 222.998 22.686C224.108 20.7373 225.268 19.763 226.476 19.763C227.315 19.763 227.734 20.318 227.734 21.428C227.734 22.7107 226.896 24.8813 225.218 27.94H226.994ZM226.254 24.166C226.649 23.2533 226.846 22.4517 226.846 21.761C226.846 21.3663 226.76 21.169 226.587 21.169C226.291 21.169 225.823 21.6253 225.181 22.538C224.762 23.13 223.886 24.9307 222.554 27.94H224.404C225.021 26.83 225.638 25.572 226.254 24.166ZM223.923 28.754H222.184C221.814 29.642 221.148 31.2823 220.186 33.675C221.494 32.3677 222.739 30.7273 223.923 28.754ZM234.848 35.081C233.812 37.3257 232.973 38.8673 232.332 39.706C231.074 41.334 229.557 42.148 227.781 42.148C226.745 42.148 225.894 41.815 225.228 41.149C224.587 40.483 224.254 39.632 224.229 38.596C224.204 36.302 225.154 33.9957 227.078 31.677C228.657 29.7777 230.285 28.828 231.962 28.828C233.343 28.828 234.034 29.42 234.034 30.604C234.034 31.9607 233.146 33.3173 231.37 34.674C230.877 35.044 230.137 35.414 229.15 35.784C228.188 36.1293 227.411 36.302 226.819 36.302C226.498 37.116 226.338 38.004 226.338 38.966C226.338 40.5693 226.918 41.371 228.077 41.371C230.322 41.371 232.357 39.262 234.182 35.044C234.33 34.6987 234.527 34.526 234.774 34.526C234.897 34.526 234.959 34.6 234.959 34.748C234.959 34.7973 234.922 34.9083 234.848 35.081ZM233.035 30.456C233.035 29.9133 232.838 29.642 232.443 29.642C231.752 29.642 230.704 30.493 229.298 32.195C228.558 33.1077 227.818 34.267 227.078 35.673C228.361 35.673 229.668 35.118 231 34.008C232.357 32.898 233.035 31.714 233.035 30.456ZM252.612 18.986C251.798 19.7753 250.096 22.6367 247.506 27.57C245.236 31.936 243.682 35.1057 242.844 37.079C242.375 38.189 242.141 39.114 242.141 39.854C242.141 40.6433 242.449 41.038 243.065 41.038C244.25 41.038 245.841 38.9907 247.839 34.896C247.962 34.6247 248.085 34.489 248.209 34.489C248.332 34.489 248.394 34.5877 248.394 34.785C248.394 34.9083 248.357 35.0563 248.283 35.229C246.309 39.743 244.348 42 242.4 42C241.684 42 241.129 41.6793 240.735 41.038C240.414 40.4707 240.254 39.817 240.254 39.077C240.254 38.6577 240.303 38.2137 240.402 37.745C239.637 39.0277 239.008 39.928 238.515 40.446C237.602 41.4327 236.689 41.926 235.777 41.926C235.53 41.926 235.271 41.9013 235 41.852C233.766 41.5067 233.15 40.5693 233.15 39.04C233.15 37.8807 233.47 36.5733 234.112 35.118C234.704 33.8353 235.419 32.6883 236.258 31.677C237.812 29.8023 239.625 28.865 241.696 28.865C242.585 28.865 243.423 29.087 244.213 29.531C246.112 25.9543 247.543 23.0313 248.505 20.762C248.801 20.0467 249.121 19.541 249.467 19.245C249.837 18.9243 250.355 18.7887 251.021 18.838C252.18 18.9367 252.71 18.986 252.612 18.986ZM243.917 30.123C243.596 29.827 243.226 29.679 242.807 29.679C241.672 29.679 240.352 30.493 238.848 32.121C237.713 33.3543 236.788 34.6493 236.073 36.006C235.357 37.338 235 38.4727 235 39.41C235 40.3967 235.333 40.89 235.999 40.89C237.035 40.89 238.539 39.3113 240.513 36.154C241.129 35.192 242.264 33.1817 243.917 30.123Z" fill="url(#paint0_linear_415_273)"/>
<path d="M228.319 9.5879C230.31 7.91123 232.317 6.25536 234.336 4.61673L235.848 3.38466C236.091 3.18028 236.361 2.9728 236.644 2.76399C236.926 2.56358 237.219 2.37778 237.524 2.21056C238.737 1.53723 240.115 1.12005 241.526 1.04883C244.359 0.861696 247.252 2.06589 249.256 4.23008C250.267 5.30554 251.037 6.63272 251.508 8.0705C251.731 8.79337 251.875 9.53924 251.955 10.2918C252.016 11.0438 252.019 11.8012 251.94 12.5603C251.85 13.3177 251.695 14.0729 251.452 14.8046C251.2 15.5323 250.873 16.2344 250.476 16.8949C249.674 18.2084 248.596 19.352 247.323 20.2C244.799 21.9183 241.48 22.4876 238.495 21.5533C237.755 21.3215 237.03 21.0233 236.362 20.6318C236.025 20.4531 235.692 20.2151 235.395 20.0217L234.598 19.4661L231.416 17.2298C229.296 15.7376 227.178 14.2423 225.071 12.7315C222.96 11.2274 220.85 9.71929 218.752 8.19569L215.599 5.91737L214.814 5.34491L214.617 5.20113L214.454 5.09053L214.133 4.87332C213.695 4.60434 213.235 4.38447 212.761 4.2084C210.86 3.52888 208.659 3.76866 206.864 4.83085C205.076 5.8979 203.754 7.73471 203.391 9.85157C203.212 10.908 203.217 12.033 203.466 13.0797C203.704 14.1348 204.19 15.1218 204.85 15.9889C206.184 17.7102 208.303 18.8613 210.526 18.9821C211.635 19.0396 212.768 18.8587 213.818 18.4101C214.085 18.3088 214.336 18.1694 214.594 18.0407C214.849 17.889 215.068 17.7611 215.357 17.5788L217.019 16.5644C218.125 15.8854 219.234 15.2103 220.361 14.56C221.48 13.8981 222.612 13.2545 223.757 12.6302C222.812 13.5402 221.853 14.4308 220.881 15.3032C219.916 16.1871 218.935 17.0458 217.95 17.9009L216.475 19.1878C216.358 19.2953 216.226 19.3984 216.073 19.5046C215.926 19.609 215.781 19.7174 215.631 19.8178C215.325 20.0063 215.022 20.2022 214.697 20.3597C213.417 21.0322 211.966 21.3976 210.504 21.4387C207.567 21.5334 204.622 20.2204 202.614 17.9376C201.612 16.7958 200.854 15.4098 200.43 13.9198C200.002 12.4267 199.896 10.866 200.102 9.32379C200.314 7.78117 200.856 6.26199 201.709 4.94631C202.544 3.61604 203.695 2.51448 204.996 1.67349C206.309 0.85285 207.787 0.287473 209.333 0.0901661C210.876 -0.121298 212.474 0.0441562 213.964 0.534328C214.706 0.789589 215.42 1.11829 216.092 1.51644C216.258 1.61775 216.419 1.72702 216.583 1.83319L216.823 1.9929L217.022 2.13314L217.815 2.69498L220.981 4.95472C223.094 6.45664 225.197 7.97405 227.297 9.495C229.402 11.0093 231.496 12.5395 233.588 14.0724L236.724 16.3742L237.506 16.9529C237.749 17.1174 237.937 17.2687 238.169 17.3988C238.609 17.6784 239.083 17.8841 239.566 18.054C241.498 18.7154 243.751 18.48 245.562 17.3479C246.473 16.8029 247.265 16.0495 247.872 15.1638C248.171 14.7175 248.424 14.2392 248.63 13.7371C248.826 13.2306 248.974 12.7028 249.073 12.1587C249.453 9.95598 248.92 7.59934 247.497 5.82623C246.095 4.03896 243.872 2.88741 241.545 2.78301C240.382 2.72152 239.197 2.9467 238.096 3.41829C237.82 3.53331 237.552 3.67355 237.286 3.81688L236.893 4.04339C236.759 4.1239 236.622 4.21858 236.487 4.30573L234.86 5.37101C232.692 6.79463 230.513 8.20144 228.319 9.5879Z" fill="url(#paint1_linear_415_273)"/>
<defs>
<linearGradient id="paint0_linear_415_273" x1="17.5936" y1="44.1646" x2="190.54" y2="-71.406" gradientUnits="userSpaceOnUse">
<stop stop-color="#EDBC46"/>
<stop offset="0.25" stop-color="#FFC22E"/>
<stop offset="0.5" stop-color="#FFDE8D"/>
<stop offset="0.75" stop-color="#F8C753"/>
<stop offset="1" stop-color="#CC981C"/>
</linearGradient>
<linearGradient id="paint1_linear_415_273" x1="203.522" y1="20.0506" x2="254.453" y2="9.54354" gradientUnits="userSpaceOnUse">
<stop stop-color="#EDBC46"/>
<stop offset="0.25" stop-color="#FFC22E"/>
<stop offset="0.5" stop-color="#FFDE8D"/>
<stop offset="0.75" stop-color="#F8C753"/>
<stop offset="1" stop-color="#CC981C"/>
</linearGradient>
</defs>
</svg>
